<svg width="432" height="62" viewBox="0 0 432 62" fill="none" xmlns="http://www.w3.org/2000/svg">
<g clip-path="url(#clip0_36_11)">
<path d="M6.92 7H57.288V18.968H39.56V55H24.648V18.968H6.92V7ZM63.3475 7H107.252V18.968H78.2595V24.92H105.268V36.824H78.2595V43.096H107.7V55H63.3475V7ZM115.41 7H130.322V43.096H156.306V55H115.41V7ZM162.41 7H206.314V18.968H177.322V24.92H204.33V36.824H177.322V43.096H206.762V55H162.41V7ZM247.369 43.416H229.385V55H214.473V7H247.369C257.417 7 265.545 15.192 265.545 25.24C265.545 35.288 257.417 43.416 247.369 43.416ZM244.297 18.904H229.385V31.64H244.297C247.817 31.64 250.697 28.824 250.697 25.304C250.697 21.784 247.817 18.904 244.297 18.904ZM271.973 7H286.885V43.096H312.869V55H271.973V7ZM318.973 7H362.877V18.968H333.885V24.92H360.893V36.824H333.885V43.096H363.325V55H318.973V7ZM426.267 7L407.067 30.872L427.227 55H407.963L396.891 40.408L386.331 55H368.155L388.251 30.04L368.987 7H388.315L398.427 20.504L408.091 7.064L426.267 7Z" fill="black"/>
</g>
<defs>
<clipPath id="clip0_36_11">
<rect width="432" height="62" fill="white"/>
</clipPath>
</defs>
</svg>
