<svg width="1686" height="1750" viewBox="0 0 1686 1750" fill="none" xmlns="http://www.w3.org/2000/svg">
<path d="M1270.4 1706.7C1256.2 1690.5 1015.8 1419.5 832.7 1213.3L750 1120.1V917.6V715L626.5 714.8L502.9 714.5L499.8 720C490.1 737.4 472.9 755 456.3 764.3C415.1 787.6 366.6 780.4 331.9 746C321.7 735.8 315 726.5 308.6 713.5C302.6 701.4 299 690.9 296.3 678C293.8 666 293.8 636 296.3 624C302.1 596.9 313.6 575.2 331.9 556.9C355 533.9 379.6 524 410.7 525.3C426.1 525.9 435.4 528.2 448.7 534.5C469.4 544.3 485.8 559.4 498.6 580.4L503.3 588.3L683.2 587.7L863 587V827.8L863.1 1068.5L910.2 1121.5C982.7 1203.1 1128.4 1367.3 1211.8 1461.3L1287 1546.1V1635C1287 1684 1286.7 1724 1286.3 1723.9C1285.8 1723.9 1278.7 1716.1 1270.4 1706.7ZM421.5 705C435.3 700.2 447.1 687.7 452.8 671.8C456.3 662 457 645.8 454.5 636.1C447.9 611.2 428.6 595 405.4 595C387.7 595 370.2 606.9 362 624.5C345.8 659.3 365.2 702.2 399.5 707.4C404.7 708.1 415.9 706.9 421.5 705Z" fill="white"/>
<path d="M1230.3 1314.9L1174 1251.5V919.8V588H1299H1424V414V240H963.1H502.2L498.1 247C479 279.1 447.8 299.5 413 302.6C404 303.4 386.8 301.7 377.8 299.1C369.1 296.6 355.8 290.3 347.9 284.9C339.3 279.1 326.1 266.2 318.7 256.5C308.3 242.7 298.7 220.1 295.6 201.7C290.3 170.8 294.4 141.2 307.6 114.7C327.8 74.2 364.4 50 405.5 50C427.8 50 449.1 57.2 466.8 70.6C478.7 79.6 491.9 94.6 499 107.3L502.3 113.2L1019.1 112.8L1536 112.5V413.8V715H1411.5H1287L1286.8 1046.7L1286.5 1378.4L1230.3 1314.9ZM413.2 232C448.7 226.2 467.4 178.8 447.5 145.5C438.1 129.8 424.9 121.4 407.9 120.3C393.3 119.4 381.2 124.5 370.7 136C360.4 147.4 355.8 159.8 355.7 176C355.7 199.7 367.2 219.3 386.7 228.5C395.3 232.6 403.3 233.7 413.2 232Z" fill="white"/>
<path d="M1019.2 1077.1L963 1013.7V745.6V477.5L629.2 477.2L295.3 477L294.1 479.7C291.1 486.4 279.4 502.4 272.3 509.7C259.6 522.6 246.7 530.9 230 536.8C209.5 544 184.7 543.9 164 536.5C113.6 518.5 81.5 463.8 86.2 404C90 355.3 118.9 313.3 159.9 296.6C173.1 291.3 182.4 289.6 198 289.6C214.6 289.7 225.8 292.1 239.4 298.4C259.3 307.5 279.3 325.8 289.9 344.4L293.1 350H810.1H1327V413.5V477H1201.5H1076L1075.8 808.7L1075.5 1140.5L1019.2 1077.1ZM210.1 470.4C226.9 465.5 239.7 451.8 245.6 432.5C248.2 423.7 248 406.8 245.2 397.5C238 374.4 219.7 359.7 198 359.6C185.7 359.5 176.8 362.9 166.8 371.5C147 388.3 142 420.3 155.2 445.2C161.5 457.1 173.9 467.3 186 470.6C192.4 472.4 203.7 472.3 210.1 470.4Z" fill="white"/>
</svg>
