<svg width="633" height="94" viewBox="0 0 633 94" fill="none" xmlns="http://www.w3.org/2000/svg">
<path d="M0.545455 17.1364V0.909088H77V17.1364H48.5V94H29.0455V17.1364H0.545455ZM89.5909 94V0.909088H152.318V17.1364H109.273V39.3182H149.091V55.5455H109.273V77.7727H152.5V94H89.5909ZM167.966 94V0.909088H187.648V77.7727H227.557V94H167.966ZM240.591 94V0.909088H303.318V17.1364H260.273V39.3182H300.091V55.5455H260.273V77.7727H303.5V94H240.591ZM318.966 94V0.909088H355.693C362.754 0.909088 368.769 2.25757 373.739 4.95454C378.708 7.62121 382.496 11.3333 385.102 16.0909C387.739 20.8182 389.057 26.2727 389.057 32.4545C389.057 38.6364 387.723 44.0909 385.057 48.8182C382.39 53.5455 378.527 57.2273 373.466 59.8636C368.436 62.5 362.345 63.8182 355.193 63.8182H331.784V48.0455H352.011C355.799 48.0455 358.92 47.3939 361.375 46.0909C363.86 44.7576 365.708 42.9242 366.92 40.5909C368.163 38.2273 368.784 35.5151 368.784 32.4545C368.784 29.3636 368.163 26.6667 366.92 24.3636C365.708 22.0303 363.86 20.2273 361.375 18.9545C358.89 17.6515 355.739 17 351.92 17H338.648V94H318.966ZM401.841 94V0.909088H421.523V77.7727H461.432V94H401.841ZM474.466 94V0.909088H537.193V17.1364H494.148V39.3182H533.966V55.5455H494.148V77.7727H537.375V94H474.466ZM571.295 0.909088L590.068 32.6364H590.795L609.659 0.909088H631.886L603.477 47.4545L632.523 94H609.886L590.795 62.2273H590.068L570.977 94H548.432L577.568 47.4545L548.977 0.909088H571.295Z" fill="black"/>
</svg>
